<?xml version="1.0" standalone="no"?>
<!DOCTYPE svg PUBLIC "-//W3C//DTD SVG 20010904//EN"
        "http://www.w3.org/TR/2001/REC-SVG-20010904/DTD/svg10.dtd">
<svg version="1.0" xmlns="http://www.w3.org/2000/svg"
     width="496.000000pt" height="527.000000pt" viewBox="0 0 496.000000 527.000000"
     preserveAspectRatio="xMidYMid meet">
    <rect x="10" y="10" width="476" height="507" rx="40" fill="url(#bg)" />
    <defs>
        <linearGradient id="bg" x1="0" y1="0" x2="496" y2="527"
                        gradientUnits="userSpaceOnUse">
            <stop offset="0.15937" stop-color="#3BEA62"/>
            <stop offset="0.5404" stop-color="#3C99CC"/>
            <stop offset="0.93739" stop-color="#6B57FF"/>
        </linearGradient>
    </defs>
    <g  xmlns="http://www.w3.org/2000/svg" transform="translate(0.000000,527.000000) scale(0.100000,-0.100000)" fill="#fff" stroke="none">

        <path d="M804 3395 c-91 -16 -134 -30 -209 -68 -168 -84 -295 -211 -371 -370 -53 -114 -68 -185 -68 -327 0 -149 15 -217 78 -345 100 -202 273 -342 502 -408 l79 -22 1773 -3 1773 -2 24 24 25 25 0 211 c0 200 1 210 19 210 10 0 41 15 68 33 l50 34 37 -34 c35 -33 39 -34 109 -31 l72 3 3 50 c4 55 -12 75 -59 75 -14 0 -32 6 -38 13 -7 9 -12 93 -13 238 l-3 224 -60 0 c-53 0 -60 -2 -63 -21 -3 -20 -4 -20 -59 8 -46 23 -69 28 -128 28 -39 0 -92 -7 -118 -16 -61 -20 -141 -93 -175 -158 -23 -44 -27 -63 -27 -141 0 -62 6 -102 17 -128 10 -20 16 -41 15 -44 -3 -10 -133 -15 -174 -8 -60 11 -63 20 -63 196 l0 159 64 0 c77 0 88 10 84 77 l-3 48 -72 3 -73 3 0 77 c0 47 -5 83 -12 90 -16 16 -100 16 -116 0 -7 -7 -12 -43 -12 -89 l0 -78 -52 -3 -53 -3 -3 -54 c-4 -63 4 -71 65 -71 l41 0 4 -172 c3 -199 13 -231 81 -276 40 -27 41 -27 276 -32 l236 -5 0 -165 0 -165 -1680 -3 c-1883 -2 -1790 -6 -1940 67 -193 94 -319 254 -362 459 -28 138 1 316 74 439 85 146 238 263 404 310 60 17 135 18 1314 18 l1250 0 5 -427 c5 -411 6 -428 26 -454 42 -57 69 -69 152 -69 l77 0 3 50 c4 58 -11 75 -68 75 -20 0 -41 5 -48 12 -9 9 -12 125 -12 460 0 435 -1 449 -20 468 -20 20 -33 20 -1297 19 -1000 -1 -1294 -4 -1349 -14z m3611 -594 c75 -35 115 -96 115 -174 -1 -89 -60 -163 -147 -186 -82 -22 -178 24 -214 103 -72 159 90 329 246 257z"/>
        <path d="M875 3194 c-11 -2 -45 -9 -75 -15 -87 -18 -186 -75 -266 -154 -111 -109 -167 -239 -167 -390 -1 -162 47 -280 163 -396 81 -82 174 -135 278 -159 68 -16 186 -16 254 0 81 19 191 76 254 134 l58 53 -64 6 c-88 9 -176 54 -234 117 -67 76 -89 129 -94 230 -5 113 18 178 95 260 65 71 136 108 223 118 l64 7 -53 47 c-110 99 -315 166 -436 142z"/>
        <path d="M1988 2929 c-10 -5 -18 -18 -18 -29 0 -18 148 -348 224 -498 41 -81 69 -102 114 -86 15 5 36 27 49 49 49 87 244 527 241 543 -3 13 -16 18 -64 20 l-61 3 -25 -53 c-14 -29 -56 -122 -93 -206 -38 -84 -72 -149 -75 -145 -4 5 -46 96 -94 203 -48 107 -93 198 -99 202 -17 11 -79 9 -99 -3z"/>
        <path d="M2813 2924 c-58 -21 -139 -96 -170 -158 -35 -69 -42 -163 -17 -242 25 -80 105 -163 187 -193 208 -76 421 58 435 275 8 128 -51 240 -159 299 -47 25 -66 30 -144 32 -62 2 -103 -2 -132 -13z m170 -115 c50 -14 113 -71 128 -116 17 -52 6 -126 -25 -173 -55 -83 -171 -106 -258 -51 -109 69 -116 228 -15 305 57 44 105 54 170 35z"/>

    </g>
</svg>
